<svg width="1200" height="800" viewBox="0 0 1200 800" fill="none" xmlns="http://www.w3.org/2000/svg">
  <defs>
    <linearGradient id="bg1" x1="0" y1="0" x2="1" y2="1">
      <stop stop-color="#0f172a"/>
      <stop offset="1" stop-color="#0f172a" stop-opacity="0.95"/>
    </linearGradient>
    <linearGradient id="shine" x1="0" y1="0" x2="1" y2="1">
      <stop stop-color="#38bdf8" stop-opacity="0.4"/>
      <stop offset="1" stop-color="#38bdf8" stop-opacity="0"/>
    </linearGradient>
  </defs>
  <rect width="1200" height="800" rx="48" fill="url(#bg1)"/>
  <circle cx="300" cy="240" r="140" fill="#1e293b"/>
  <circle cx="320" cy="220" r="90" fill="#0f172a"/>
  <rect x="640" y="420" width="420" height="240" rx="24" fill="#1e293b"/>
  <path d="M120 630C260 520 470 560 540 680C610 800 820 740 980 590" stroke="url(#shine)" stroke-width="30" stroke-linecap="round"/>
  <path d="M420 180C520 120 620 220 720 170C820 120 900 210 980 170" stroke="#38bdf8" stroke-width="16" stroke-linecap="round"/>
  <path d="M220 520L340 420L460 540" stroke="#7dd3fc" stroke-width="18" stroke-linecap="round"/>
  <path d="M860 140L930 220L1030 180" stroke="#7dd3fc" stroke-width="18" stroke-linecap="round"/>
</svg>